<svg width="170" height="100" viewBox="0 0 170 100" fill="none" xmlns="http://www.w3.org/2000/svg">
<rect x="0.5" y="0.5" width="169" height="99" fill="#FF2646" stroke="white"/>
<path d="M125.189 14.0297L43.8126 14.444C42.271 14.4519 40.7935 15.0249 39.7051 16.0369C38.6166 17.049 38.0065 18.4172 38.0088 19.8406L38.0924 70.8265C38.0947 72.2499 38.7094 73.6119 39.8011 74.6129C40.8928 75.6138 42.3722 76.1717 43.9138 76.1639L78.7896 75.9863L78.7984 81.3533L67.1732 81.4125L67.1776 84.0959L102.053 83.9184L102.049 81.2349L90.4237 81.2941L90.4149 75.9271L125.291 75.7496C126.832 75.7417 128.31 75.1688 129.398 74.1567C130.487 73.1447 131.097 71.7765 131.094 70.3531L131.011 19.3671C131.009 17.9437 130.394 16.5817 129.302 15.5808C128.21 14.5798 126.731 14.0219 125.189 14.0297ZM87.5174 81.3089L81.7047 81.3385L81.6959 75.9715L87.5086 75.9419L87.5174 81.3089ZM128.188 70.3678C128.189 71.0795 127.884 71.7637 127.34 72.2697C126.796 72.7757 126.057 73.0622 125.286 73.0661L43.9094 73.4804C43.1386 73.4843 42.3989 73.2054 41.8531 72.7049C41.3072 72.2044 40.9999 71.5234 40.9987 70.8117L40.9151 19.8258C40.9139 19.1141 41.219 18.43 41.7632 17.9239C42.3075 17.4179 43.0462 17.1314 43.817 17.1275L125.194 16.7132C125.965 16.7093 126.704 16.9883 127.25 17.4887C127.796 17.9892 128.103 18.6702 128.105 19.3819L128.188 70.3678Z" fill="white"/>
<path d="M43.9487 63.0971L125.203 62.6568L125.136 19.5094L43.8822 19.9497L43.9487 63.0971ZM46.7883 22.6307L122.239 22.2218L122.297 59.9758L46.8465 60.3847L46.7883 22.6307Z" fill="white"/>
<path d="M84.5872 70.2217C86.2092 70.2129 87.5225 69.1782 87.5205 67.9107C87.5186 66.6432 86.2021 65.6228 84.5801 65.6315C82.9581 65.6403 81.6448 66.675 81.6467 67.9425C81.6487 69.2101 82.9652 70.2305 84.5872 70.2217Z" fill="white"/>
</svg>
