<svg width="170" height="100" viewBox="0 0 170 100" fill="none" xmlns="http://www.w3.org/2000/svg">
<rect x="0.5" y="0.5" width="169" height="99" fill="#FF2646" stroke="white"/>
<path d="M69.306 13C75.9873 14.2445 85.767 17.1643 91.0926 18.8875C104.407 23.4347 108.958 29.0828 108.958 41.815C108.958 54.26 101.211 58.9508 91.3347 54.26V31.0931C91.3347 28.4605 90.8506 25.9237 88.2362 25.2057C86.2512 24.5834 85.0892 26.4023 85.0892 29.0828V87L69.306 82.022V13ZM88.0425 76.9004L113.46 67.9495C116.365 66.9444 116.801 65.5084 114.477 64.7426C112.105 63.9767 107.893 64.216 104.988 65.2212L88.0425 71.1087V61.727L89.0592 61.392C89.0592 61.392 93.9491 59.5731 100.776 58.9508C107.699 58.185 116.123 59.0466 122.707 61.4877C130.163 63.8331 131.035 67.2794 129.147 69.6248C127.21 72.0181 122.562 73.6934 122.562 73.6934L88.0425 85.8991V76.9004ZM40.2572 75.9431C32.6561 73.9327 31.3489 69.3855 34.8348 66.7529C38.0785 64.3596 43.5494 62.6843 43.5494 62.6843L66.2075 54.7865V63.7853L49.9401 69.577C47.0353 70.5821 46.5995 72.0181 48.9234 72.784C51.2473 73.5498 55.5078 73.3583 58.3643 72.3053L66.2075 69.5291V77.6184L64.6582 77.9056C56.815 79.1501 48.4877 78.7193 40.2572 75.9431Z" fill="white"/>
</svg>
