<svg width="170" height="100" viewBox="0 0 170 100" fill="none" xmlns="http://www.w3.org/2000/svg">
<rect x="0.5" y="0.5" width="169" height="99" fill="#FF2646" stroke="white"/>
<path d="M56.5292 76.216C63.9984 81.6941 73.7943 85 84.5013 85C95.2216 85 105.004 81.6963 112.487 76.216C119.127 70.5648 97.2005 50.4585 84.5013 42.4488C71.8155 50.4563 49.8755 70.5648 56.5292 76.216V76.216ZM96.053 33.6115C104.906 42.3712 122.559 64.1171 117.579 71.8029C123.473 65.7124 127 57.9579 127 49.5111C127 39.631 122.174 30.6872 114.357 24.2617C114.357 24.2617 114.258 24.1907 114.067 24.1352C113.844 24.0642 113.525 24.0088 113.068 24.0088C110.983 24.0088 106.043 25.289 96.0557 33.6115H96.053ZM54.9355 24.1352C54.7443 24.1907 54.646 24.2617 54.6301 24.2617C46.8289 30.6872 42 39.631 42 49.5111C42 57.9579 45.5274 65.7013 51.4214 71.7896C46.4703 64.0949 64.094 42.3578 72.9603 33.6093C62.9731 25.2757 58.0193 24.0066 55.9316 24.0066C55.4747 24.0066 55.1427 24.062 54.9329 24.1463L54.9355 24.1352ZM84.5013 24.5058C84.5013 24.5058 74.0706 19.4093 65.9214 19.1653C62.7261 19.0743 60.7764 20.0328 60.5374 20.1703C68.134 15.9081 76.2114 14 84.4429 14H84.4987C92.7726 14 100.808 15.9081 108.46 20.1703C108.224 20.0306 106.285 19.0721 103.076 19.1653C94.9268 19.4071 84.496 24.4925 84.496 24.4925L84.5013 24.5058Z" fill="white"/>
</svg>
